Coordinates
version=1
nRows=17
nColumns=40
inDegrees=yes

Units are S.I. units (second, meters, Newtons, ...)
Angles are in degrees.

endheader
time	pelvis_tilt	pelvis_list	pelvis_rotation	pelvis_tx	pelvis_ty	pelvis_tz	hip_flexion_r	hip_adduction_r	hip_rotation_r	knee_angle_r	knee_angle_r_beta	ankle_angle_r	subtalar_angle_r	mtp_angle_r	hip_flexion_l	hip_adduction_l	hip_rotation_l	knee_angle_l	knee_angle_l_beta	ankle_angle_l	subtalar_angle_l	mtp_angle_l	lumbar_extension	lumbar_bending	lumbar_rotation	arm_flex_r	arm_add_r	arm_rot_r	elbow_flex_r	pro_sup_r	wrist_flex_r	wrist_dev_r	arm_flex_l	arm_add_l	arm_rot_l	elbow_flex_l	pro_sup_l	wrist_flex_l	wrist_dev_l
     26.52250000	     -6.88550795	     -5.36382590	     -0.06724290	      1.07401407	      0.91720945	      0.46040319	     -0.73792789	     -1.68053036	    -15.55538688	     24.18388430	     24.18388430	     14.78630706	      9.95360337	    -12.53076594	     31.23996232	     -7.28018550	     -2.13948903	     27.84345771	     27.84345771	      7.17938060	    -15.22845609	     10.16135436	     -9.52051714	      6.33404639	      5.87116582	     44.41178122	    -17.79303335	      5.19250424	    128.54234552	     43.48254249	      0.00000000	      0.00000000	    -18.07018914	     -8.71338572	      7.24940707	     25.86048159	     44.59281245	      0.00000000	      0.00000000
     26.53400000	     -6.81640373	     -5.15991691	     -0.14810804	      1.07486513	      0.91857341	      0.45694804	      0.22965123	     -2.62756655	    -15.13912175	     27.04637479	     27.04637479	     13.65111755	      8.97154028	    -13.42258032	     30.40809465	     -6.92042013	     -2.47385596	     27.73049406	     27.73049406	      7.78232803	    -15.10726415	      9.95364150	     -9.48549241	      6.29618014	      5.47719272	     42.72927543	    -17.83859458	      5.42562528	    128.19460690	     43.48551195	      0.00000000	      0.00000000	    -17.05463349	     -8.75399472	      7.35308232	     26.38665894	     44.60170192	      0.00000000	      0.00000000
     26.54550000	     -6.79619519	     -5.00693573	     -0.23127721	      1.07550681	      0.91978815	      0.45367583	      1.45824456	     -3.46603018	    -14.52496623	     30.15674342	     30.15674342	     12.13560410	      7.38911916	    -14.58703872	     29.59889743	     -6.59637308	     -2.73841931	     27.52168318	     27.52168318	      8.29980813	    -15.04547151	      9.77736386	     -9.39387843	      6.29485760	      5.30412990	     40.79282924	    -18.17458513	      5.38249888	    127.86246394	     43.49905636	      0.00000000	      0.00000000	    -15.96114821	     -8.89342212	      7.38117379	     27.25577363	     44.62415112	      0.00000000	      0.00000000
     26.55700000	     -6.67966199	     -4.94714516	     -0.31295708	      1.07601213	      0.92106921	      0.45070398	      2.61792357	     -4.01230554	    -13.58078068	     33.04150621	     33.04150621	      9.35931387	      4.53398473	    -18.30529273	     28.70225284	     -6.38200866	     -2.95285981	     27.31710469	     27.31710469	      8.75950133	    -14.97393045	      9.46043412	     -9.48987075	      6.33729084	      5.61049545	     38.24781822	    -18.64512629	      4.16845515	    128.04762771	     43.57841924	      0.00000000	      0.00000000	    -14.92382129	     -9.37028910	      7.74105613	     29.37680155	     44.63945664	      0.00000000	      0.00000000
     26.56850000	     -6.49090985	     -4.77779628	     -0.37451322	      1.07632758	      0.92227931	      0.44773139	      4.00152021	     -4.86841660	    -13.05925642	     36.57363644	     36.57363644	      7.64196251	      2.96593061	    -18.45431834	     27.73745702	     -6.04895995	     -3.20998933	     27.11816716	     27.11816716	      9.24851113	    -14.86825050	      9.25108121	     -9.64123663	      6.32514164	      5.27266968	     36.25353801	    -18.63770607	      4.46364297	    127.14721464	     43.59105980	      0.00000000	      0.00000000	    -13.59893320	     -9.53532554	      7.71037432	     30.06504172	     44.67112856	      0.00000000	      0.00000000
     26.58000000	     -6.55702896	     -4.76957456	     -0.48049188	      1.07612301	      0.92312124	      0.44516846	      5.92593271	     -5.23485447	    -11.90384560	     40.25806393	     40.25806393	      5.62273181	     -0.12961460	    -18.16282859	     27.06095852	     -5.88884523	     -3.33560172	     26.83891582	     26.83891582	      9.57808148	    -14.84996990	      8.99092069	     -9.49489465	      6.42550433	      5.22804867	     33.92168201	    -19.01762644	      4.02212952	    125.60939210	     43.65705200	      0.00000000	      0.00000000	    -12.34398080	     -9.83427999	      7.58066156	     31.44612119	     44.72436862	      0.00000000	      0.00000000
     26.59150000	     -6.45716412	     -4.73517492	     -0.57700414	      1.07581763	      0.92404356	      0.44279509	      7.75505044	     -5.60767966	    -10.92038954	     43.94703991	     43.94703991	      3.66391753	     -2.81514206	    -17.32263528	     26.24183662	     -5.73073400	     -3.52074055	     26.62655403	     26.62655403	      9.95156824	    -14.76980904	      8.64001794	     -9.58138587	      6.48231912	      5.13141983	     31.58119650	    -19.01627105	      3.45226925	    123.99893994	     43.73227458	      0.00000000	      0.00000000	    -11.04734851	    -10.22366611	      7.39577846	     33.04559937	     44.78855905	      0.00000000	      0.00000000
     26.60300000	     -6.36605939	     -4.69873904	     -0.67660530	      1.07526630	      0.92488633	      0.44059661	      9.71481380	     -5.90606698	     -9.98443168	     47.64375322	     47.64375322	      1.91777964	     -5.28021989	    -15.58783653	     25.45201393	     -5.58593958	     -3.72291654	     26.41391704	     26.41391704	     10.28047313	    -14.68401675	      8.22983426	     -9.68684597	      6.51041354	      5.01217967	     29.24303371	    -18.85788382	      2.70816510	    121.98612661	     43.83061476	      0.00000000	      0.00000000	     -9.71954573	    -10.62680796	      7.17297483	     34.89130836	     44.86521181	      0.00000000	      0.00000000
     26.61450000	     -6.29864244	     -4.65496418	     -0.78356863	      1.07449304	      0.92563062	      0.43855096	     11.78267820	     -6.14524801	     -9.10379451	     51.24743573	     51.24743573	      0.42282955	     -7.43906425	    -13.48045864	     24.68951160	     -5.43259342	     -3.88020768	     26.16841089	     26.16841089	     10.61761350	    -14.59303435	      7.87591044	     -9.76041752	      6.55877532	      4.90000544	     26.96884595	    -18.71907212	      2.15638507	    119.63228973	     43.92953882	      0.00000000	      0.00000000	     -8.27417415	    -11.06537669	      6.92067540	     36.51507650	     44.94346104	      0.00000000	      0.00000000
     26.62600000	     -6.23977615	     -4.48126139	     -0.93721769	      1.07354963	      0.92630304	      0.43666803	     13.89970466	     -6.50960191	     -8.32049117	     54.64216211	     54.64216211	     -1.10305088	     -9.27433562	    -12.24192161	     23.90513332	     -5.17307379	     -4.18863273	     25.86015585	     25.86015585	     10.97188543	    -14.48208817	      7.68120809	     -9.87399456	      6.44296683	      4.70210676	     24.69646105	    -18.51603903	      2.15308775	    117.60219918	     43.98834647	      0.00000000	      0.00000000	     -6.59472013	    -11.46555633	      6.68878160	     37.65094470	     45.00534285	      0.00000000	      0.00000000
     26.63750000	     -6.19260714	     -4.50822155	     -1.04950277	      1.07241892	      0.92698600	      0.43503352	     16.15572942	     -6.48552772	     -7.50779278	     58.05522168	     58.05522168	     -0.91509564	    -10.19658595	     -6.65496522	     23.17995873	     -5.12704752	     -4.36691036	     25.57721264	     25.57721264	     11.18464598	    -14.33858596	      7.02197574	     -9.89954057	      6.48480827	      4.33445173	     22.82629104	    -17.35132897	      0.24114127	    113.39601036	     44.21261800	      0.00000000	      0.00000000	     -5.53107480	    -12.06534722	      6.26345576	     40.48777912	     45.13777322	      0.00000000	      0.00000000
     26.64900000	     -6.11762393	     -4.48137748	     -1.23810058	      1.07121953	      0.92767796	      0.43360398	     18.31700792	     -6.45847858	     -6.74995924	     60.99669951	     60.99669951	     -1.18355730	    -11.23278251	     -3.56061238	     22.42842842	     -5.04395972	     -4.59800691	     25.32134634	     25.32134634	     11.48125122	    -14.31392363	      6.65609360	     -9.99517933	      6.50166998	      4.27141386	     20.90721477	    -17.18402049	      0.04956767	    109.87557679	     44.35762937	      0.00000000	      0.00000000	     -3.86047130	    -12.51252322	      5.88281359	     42.14816846	     45.27358880	      0.00000000	      0.00000000
     26.66050000	     -6.06577806	     -4.46560747	     -1.44053129	      1.06991060	      0.92842151	      0.43232838	     20.40001043	     -6.34330270	     -6.06642665	     63.42830449	     63.42830449	     -1.71135159	    -12.28381992	     -2.45720734	     21.67375904	     -4.97649236	     -4.80996112	     25.00195850	     25.00195850	     11.81231959	    -14.22480028	      6.45731802	    -10.10559136	      6.50706455	      4.29537314	     18.99109619	    -16.90245669	     -0.52882757	    106.24525712	     44.49906442	      0.00000000	      0.00000000	     -1.96982070	    -12.92670532	      5.53111259	     43.63390468	     45.37576303	      0.00000000	      0.00000000
     26.67200000	     -6.08099387	     -4.38752959	     -1.74088777	      1.06857138	      0.92902952	      0.43134960	     22.55323034	     -6.21291489	     -5.37207096	     65.53147122	     65.53147122	     -2.14408914	    -13.20975294	     -2.15356539	     20.92093837	     -4.87591161	     -5.14490011	     24.57822834	     24.57822834	     12.19668144	    -14.15200902	      6.34295094	    -10.15305070	      6.40655376	      4.53687876	     16.89314892	    -16.98255149	     -0.67296824	    103.16738403	     44.59566944	      0.00000000	      0.00000000	     -0.01705427	    -13.23142612	      5.23294172	     44.91223804	     45.44648627	      0.00000000	      0.00000000
     26.68350000	     -5.96459139	     -4.44107764	     -1.96729592	      1.06710965	      0.92993956	      0.43035971	     24.44678258	     -5.97361276	     -4.91331990	     67.16141067	     67.16141067	     -2.26365047	    -13.64016443	     -1.61650026	     20.10094476	     -4.89047576	     -5.35163114	     24.24107988	     24.24107988	     12.44248464	    -14.03983374	      6.17261893	    -10.32916837	      6.50104467	      4.65530415	     15.49946113	    -16.42219761	     -1.80500128	     98.24841389	     44.78759928	      0.00000000	      0.00000000	      1.99158967	    -13.70849629	      4.96268366	     46.69771146	     45.52881325	      0.00000000	      0.00000000
     26.69500000	     -5.90435562	     -4.40027061	     -2.26031330	      1.06567621	      0.93069950	      0.42962957	     26.39697928	     -5.77910334	     -4.44511469	     68.48829441	     68.48829441	     -2.00503177	    -13.81015929	     -0.78199062	     19.26874701	     -4.82034107	     -5.64975693	     23.79047212	     23.79047212	     12.64841185	    -14.00175510	      5.86497860	    -10.42304903	      6.43333097	      4.08983147	     14.70680903	    -15.33867969	     -2.21211854	     92.92574162	     44.97882528	      0.00000000	      0.00000000	      3.13586958	    -14.43039656	      4.57970574	     49.14561619	     45.67080037	      0.00000000	      0.00000000
     26.70650000	     -5.85641723	     -4.39201432	     -2.58843101	      1.06421369	      0.93143238	      0.42909166	     28.24437037	     -5.52690105	     -4.06478119	     69.32226737	     69.32226737	     -1.92034231	    -13.96713424	     -0.82069169	     18.43147502	     -4.80125351	     -5.97991397	     23.31255054	     23.31255054	     12.90535880	    -13.90625717	      5.72920417	    -10.55403845	      6.41220090	      4.18293241	     13.51310657	    -14.90211895	     -2.80250629	     88.18818436	     45.14670824	      0.00000000	      0.00000000	      5.00443640	    -14.93111373	      4.26049433	     50.85207298	     45.77342496	      0.00000000	      0.00000000
